<svg width="41" height="24" viewBox="0 0 41 24" fill="none" xmlns="http://www.w3.org/2000/svg">
<path d="M41 3.54454C41 5.5898 39.3227 7.12395 37.2727 7.12395C36.9373 7.12395 36.6205 7.08305 36.3223 6.98077L29.6877 14.7541C29.7809 15.0814 29.8182 15.4496 29.8182 15.8178C29.8182 18.0679 28.1409 19.9089 26.0909 19.9089C24.0409 19.9089 22.3636 18.0679 22.3636 15.8178C22.3636 15.4496 22.4009 15.0814 22.4941 14.7541L17.7418 9.27629C17.4436 9.37856 17.1082 9.41947 16.7727 9.41947C16.4373 9.41947 16.1018 9.37856 15.8036 9.27629L7.75416 18.3543C7.84734 18.6816 7.88462 19.0293 7.88462 19.3975C7.88462 21.6476 5.77727 24 3.72727 24C1.67727 24 0 22.159 0 19.9089C0 17.6588 1.73031 16.186 3.78031 16.186C4.11577 16.186 4.43259 16.2269 4.73077 16.3292L12.7458 6.65377C12.6527 6.32648 12.6154 5.95828 12.6154 5.59008C12.6154 3.33998 14.7227 1.49899 16.7727 1.49899C18.8227 1.49899 20.5 3.33998 20.5 5.59008C20.5 5.95828 20.4627 6.32648 20.3695 6.65377L25.1218 11.8699C25.42 11.7676 25.7555 11.7267 26.0909 11.7267C26.4264 11.7267 26.7618 11.7676 27.06 11.8699L33.6759 4.58777C33.5827 4.26048 33.5455 3.91274 33.5455 3.54454C33.5455 1.29444 35.2227 0 37.2727 0C39.3227 0 41 1.49899 41 3.54454Z" fill="#D53F8C"/>
</svg>
