<svg width="21" height="23" viewBox="0 0 21 23" fill="none" xmlns="http://www.w3.org/2000/svg">
<path d="M11.085 0.47C10.5161 0.0433331 9.73389 0.0433333 9.165 0.47L0.765 6.77C0.362111 7.07217 0.125 7.54639 0.125 8.05V20.65C0.125 21.5337 0.841344 22.25 1.725 22.25H4.775C5.65866 22.25 6.375 21.5337 6.375 20.65V15.1C6.375 14.2163 7.09135 13.5 7.975 13.5H12.275C13.1587 13.5 13.875 14.2163 13.875 15.1V20.65C13.875 21.5337 14.5913 22.25 15.475 22.25H18.525C19.4087 22.25 20.125 21.5337 20.125 20.65V8.05C20.125 7.54639 19.8879 7.07217 19.485 6.77L11.085 0.47Z" fill="#646464"/>
</svg>
