<svg width="22" height="24" viewBox="0 0 22 24" fill="none" xmlns="http://www.w3.org/2000/svg">
<path fill-rule="evenodd" clip-rule="evenodd" d="M8.54603 1.95215C8.54603 1.39986 8.99374 0.952148 9.54603 0.952148H20.1249C20.6772 0.952148 21.1249 1.39986 21.1249 1.95215V4.89146C21.1249 5.44375 20.6772 5.89146 20.1249 5.89146H11.7039V18.5807C11.7039 18.5841 11.7039 18.5875 11.7039 18.5909C11.7039 18.5943 11.7039 18.5977 11.7039 18.6011V18.8463L11.6993 18.8402C11.5837 21.9302 9.31204 23.9522 5.91446 23.9522C2.42635 23.9522 0.125 21.821 0.125 18.5909C0.125 15.3608 2.42635 13.2296 5.91446 13.2296C6.94989 13.2296 7.88075 13.4174 8.67788 13.766L8.54711 5.89146H8.54603V5.82668L8.54602 5.8261H8.54603V1.95215Z" fill="#646464"/>
</svg>
