<svg width="56" height="56" viewBox="0 0 56 56" fill="none" xmlns="http://www.w3.org/2000/svg">
<g clip-path="url(#clip0_559_9093)">
<path d="M25.0591 29.8723C28.3078 29.8723 30.9415 27.2386 30.9415 23.9899C30.9415 20.7412 28.3078 18.1075 25.0591 18.1075C21.8104 18.1075 19.1768 20.7412 19.1768 23.9899C19.1768 27.2386 21.8104 29.8723 25.0591 29.8723Z" fill="#08ECEC"/>
<path d="M25.0591 32.8134C21.1327 32.8134 13.2944 34.784 13.2944 38.6958V41.637H36.8238V38.6958C36.8238 34.784 28.9856 32.8134 25.0591 32.8134ZM35.0003 18.637L34.0003 21.1223C35.2356 22.8576 35.2356 25.1076 34.0003 26.8429L35.0003 29.3282C37.9709 26.3576 37.9709 21.8723 35.0003 18.637ZM39.868 13.6958L38.9415 16.0929C43.015 20.534 43.015 27.2105 38.9415 31.887L39.868 34.284C45.6033 28.5634 45.618 19.6517 39.868 13.6958Z" fill="#08ECEC"/>
</g>
<circle cx="28" cy="28" r="26.5" stroke="#366D6D" stroke-width="3"/>
<defs>
<clipPath id="clip0_559_9093">
<rect width="35.2941" height="35.2941" fill="white" transform="translate(11.8237 10.3529)"/>
</clipPath>
</defs>
</svg>
