<svg width="314" height="81" viewBox="0 0 314 81" fill="none" xmlns="http://www.w3.org/2000/svg">
<g clip-path="url(#clip0_1232_28617)">
<path d="M54.0799 32.3692C49.7599 32.3692 46.3599 35.7592 46.2799 39.9792C46.1599 45.8292 50.3199 48.1392 54.0899 48.2292C58.4099 48.3292 62.0099 44.6692 61.9699 40.4692C61.9299 35.8192 58.5599 32.3592 54.0799 32.3692Z" fill="#121619"/>
<path d="M15.67 40.9094C15.96 35.9494 12.24 32.9194 8.11 32.8794C3.47 32.8294 0 36.4994 0 40.7394C0 45.0094 3.74 48.7594 8.08 48.6194C12.49 48.4694 15.69 45.3394 15.67 40.9094Z" fill="#121619"/>
<path d="M26.6502 17.9205C26.6502 13.4505 23.3702 10.0505 18.9902 10.0005C14.5502 9.95053 10.9902 13.4205 10.9902 17.8005C10.9902 22.3005 14.5402 25.8805 18.9602 25.8605C23.2802 25.8405 26.6402 22.3705 26.6402 17.9305L26.6502 17.9205Z" fill="#121619"/>
<path d="M35.3396 17.98C35.4296 22.5 38.9496 25.99 43.2796 25.86C47.8396 25.72 51.0296 22.29 50.9696 17.59C50.9096 13.22 47.4396 9.91002 43.0096 10.01C38.6496 10.11 35.2496 13.63 35.3396 17.98Z" fill="#121619"/>
<path d="M50.9798 64.0008C50.9698 59.3508 47.7998 56.1708 43.1398 56.1408C38.8398 56.1108 35.3398 59.5208 35.3398 63.7508C35.3398 68.4008 38.6998 71.9508 43.1298 71.9708C47.5198 71.9808 50.9998 68.4608 50.9898 64.0008H50.9798Z" fill="#121619"/>
<path d="M19.0997 71.441C23.5697 71.401 27.2597 67.891 27.2397 63.671C27.2197 59.171 23.5697 55.601 19.0297 55.641C14.5997 55.681 11.4197 59.221 11.5097 64.011C11.5897 68.181 14.9597 71.481 19.0997 71.441Z" fill="#121619"/>
<path d="M54.0799 32.3691C58.5599 32.3691 61.9199 35.8191 61.9699 40.4691C62.0099 44.6791 58.4099 48.3391 54.0899 48.2291C50.3199 48.1391 46.1599 45.8291 46.2799 39.9791C46.3699 35.7591 49.7599 32.3691 54.0799 32.3691Z" fill="#121619"/>
<path d="M15.67 40.9095C15.7 45.3495 12.49 48.4695 8.08 48.6195C3.74 48.7695 0 45.0095 0 40.7395C0 36.4995 3.47 32.8295 8.11 32.8695C12.24 32.9095 15.96 35.9495 15.67 40.8995V40.9095Z" fill="#121619"/>
<path d="M26.65 17.9205C26.65 22.3605 23.29 25.8305 18.97 25.8505C14.55 25.8705 11.01 22.2905 11 17.7905C10.99 13.4205 14.55 9.95053 18.99 10.0005C23.37 10.0505 26.65 13.4505 26.65 17.9205Z" fill="#121619"/>
<path d="M35.3396 17.98C35.2496 13.64 38.6396 10.11 43.0096 10.01C47.4396 9.91003 50.9096 13.21 50.9696 17.59C51.0296 22.3 47.8496 25.72 43.2796 25.86C38.9496 25.99 35.4296 22.5 35.3396 17.98Z" fill="#121619"/>
<path d="M50.9801 64.0008C50.9901 68.4608 47.5201 71.9808 43.1201 71.9708C38.6901 71.9608 35.3301 68.4008 35.3301 63.7508C35.3301 59.5208 38.8301 56.1108 43.1301 56.1408C47.7901 56.1708 50.9601 59.3508 50.9701 64.0008H50.9801Z" fill="#121619"/>
<path d="M19.0997 71.441C14.9597 71.481 11.5897 68.181 11.5097 64.011C11.4197 59.221 14.5997 55.681 19.0297 55.641C23.5697 55.601 27.2197 59.171 27.2397 63.671C27.2497 67.891 23.5697 71.401 19.0997 71.441Z" fill="#121619"/>
</g>
<path d="M112.558 9.43418C115.798 9.43418 118.534 10.5505 120.767 12.7831C123.027 14.9885 124.157 17.7657 124.157 21.1146C124.157 24.4635 123.04 27.2543 120.808 29.4869C118.575 31.6923 115.825 32.795 112.558 32.795C109.318 32.795 106.582 31.6787 104.349 29.4461C102.116 27.2135 101 24.4363 101 21.1146C101 17.7929 102.116 15.0157 104.349 12.7831C106.609 10.5505 109.345 9.43418 112.558 9.43418ZM118.357 15.0702C116.778 13.4638 114.845 12.6606 112.558 12.6606C110.271 12.6606 108.338 13.4638 106.759 15.0702C105.207 16.6494 104.431 18.6642 104.431 21.1146C104.431 23.565 105.207 25.5934 106.759 27.1998C108.338 28.779 110.271 29.5686 112.558 29.5686C114.872 29.5686 116.805 28.779 118.357 27.1998C119.936 25.5934 120.726 23.565 120.726 21.1146C120.726 18.6642 119.936 16.6494 118.357 15.0702Z" fill="#121619"/>
<path d="M139.959 32.795C136.664 32.795 133.901 31.6923 131.668 29.4869C129.463 27.2543 128.36 24.4635 128.36 21.1146C128.36 17.7657 129.463 14.9885 131.668 12.7831C133.901 10.5505 136.664 9.43418 139.959 9.43418C142.627 9.43418 144.969 10.1829 146.983 11.6804C148.998 13.1779 150.291 15.1927 150.863 17.7248H147.351C146.834 16.1457 145.908 14.8932 144.574 13.9675C143.24 13.0418 141.701 12.5789 139.959 12.5789C137.59 12.5789 135.63 13.3821 134.078 14.9885C132.553 16.5949 131.791 18.6369 131.791 21.1146C131.791 23.5923 132.553 25.6343 134.078 27.2407C135.63 28.8471 137.59 29.6503 139.959 29.6503C141.701 29.6503 143.226 29.1874 144.533 28.2617C145.867 27.336 146.806 26.0835 147.351 24.5044H150.863C150.264 27.0637 148.957 29.0921 146.942 30.5896C144.928 32.0599 142.6 32.795 139.959 32.795Z" fill="#121619"/>
<path d="M166.282 32.795C162.987 32.795 160.224 31.6923 157.991 29.4869C155.786 27.2543 154.683 24.4635 154.683 21.1146C154.683 17.7657 155.786 14.9885 157.991 12.7831C160.224 10.5505 162.987 9.43418 166.282 9.43418C168.95 9.43418 171.292 10.1829 173.306 11.6804C175.321 13.1779 176.614 15.1927 177.186 17.7248H173.674C173.157 16.1457 172.231 14.8932 170.897 13.9675C169.563 13.0418 168.024 12.5789 166.282 12.5789C163.913 12.5789 161.953 13.3821 160.401 14.9885C158.876 16.5949 158.114 18.6369 158.114 21.1146C158.114 23.5923 158.876 25.6343 160.401 27.2407C161.953 28.8471 163.913 29.6503 166.282 29.6503C168.024 29.6503 169.549 29.1874 170.856 28.2617C172.19 27.336 173.129 26.0835 173.674 24.5044H177.186C176.587 27.0637 175.28 29.0921 173.266 30.5896C171.251 32.0599 168.923 32.795 166.282 32.795Z" fill="#121619"/>
<path d="M200.16 9.88343H203.55V32.3458H200.16V27.8125C199.262 29.3644 198.064 30.5896 196.566 31.4881C195.096 32.3594 193.408 32.795 191.502 32.795C188.453 32.795 185.934 31.7059 183.947 29.5278C181.986 27.3224 181.006 24.518 181.006 21.1146C181.006 17.7112 181.986 14.9204 183.947 12.7423C185.934 10.5369 188.453 9.43418 191.502 9.43418C193.408 9.43418 195.11 9.88343 196.607 10.7819C198.105 11.6804 199.289 12.9192 200.16 14.4984V9.88343ZM192.156 29.5686C194.47 29.5686 196.389 28.779 197.914 27.1998C199.439 25.5934 200.201 23.565 200.201 21.1146C200.201 18.6642 199.439 16.6494 197.914 15.0702C196.389 13.4638 194.47 12.6606 192.156 12.6606C189.869 12.6606 188.003 13.4638 186.56 15.0702C185.145 16.6494 184.437 18.6642 184.437 21.1146C184.437 23.5923 185.158 25.6207 186.601 27.1998C188.044 28.779 189.896 29.5686 192.156 29.5686Z" fill="#121619"/>
<path d="M219.1 32.795C216.159 32.795 213.722 32.1416 211.789 30.8347C209.856 29.5278 208.672 27.6899 208.236 25.3212H211.707C212.143 26.8459 212.946 27.935 214.117 28.5884C215.315 29.2419 216.976 29.5686 219.1 29.5686C220.815 29.5686 222.203 29.2827 223.265 28.7109C224.354 28.1119 224.899 27.2815 224.899 26.2197C224.899 25.5662 224.627 25.0217 224.082 24.586C223.538 24.1232 222.952 23.7965 222.326 23.6059C221.7 23.4153 220.624 23.1294 219.1 22.7482C218.746 22.6665 218.473 22.5985 218.283 22.544C214.907 21.7 212.579 20.8695 211.299 20.0527C210.019 19.2359 209.379 17.9563 209.379 16.2137C209.379 14.09 210.21 12.4292 211.871 11.2312C213.559 10.0332 215.764 9.43418 218.487 9.43418C221.101 9.43418 223.224 10.0059 224.858 11.1495C226.519 12.2658 227.581 13.845 228.044 15.887H224.613C223.796 13.7361 221.781 12.6606 218.569 12.6606C216.799 12.6606 215.397 12.9737 214.362 13.5999C213.327 14.1989 212.81 14.9885 212.81 15.9687C212.81 16.8127 213.232 17.4389 214.076 17.8473C214.92 18.2285 216.608 18.7458 219.14 19.3993C220.338 19.6988 221.237 19.9302 221.836 20.0936C222.462 20.2569 223.197 20.4884 224.041 20.7879C224.913 21.0874 225.552 21.3732 225.961 21.6455C226.369 21.9178 226.791 22.2717 227.227 22.7074C227.662 23.1158 227.962 23.5923 228.125 24.1368C228.289 24.6541 228.37 25.2531 228.37 25.9338C228.37 28.1392 227.485 29.8409 225.716 31.0389C223.973 32.2096 221.768 32.795 219.1 32.795Z" fill="#121619"/>
<path d="M233.075 0.653451C233.538 0.217817 234.11 0 234.79 0C235.471 0 236.029 0.217817 236.465 0.653451C236.928 1.08908 237.159 1.62001 237.159 2.24623C237.159 2.89968 236.928 3.44422 236.465 3.87986C236.029 4.31549 235.471 4.53331 234.79 4.53331C234.11 4.53331 233.538 4.31549 233.075 3.87986C232.639 3.44422 232.422 2.89968 232.422 2.24623C232.422 1.62001 232.639 1.08908 233.075 0.653451ZM233.075 32.3458V9.88343H236.465V32.3458H233.075Z" fill="#121619"/>
<path d="M253.147 9.43418C256.387 9.43418 259.123 10.5505 261.356 12.7831C263.616 14.9885 264.746 17.7657 264.746 21.1146C264.746 24.4635 263.629 27.2543 261.397 29.4869C259.164 31.6923 256.414 32.795 253.147 32.795C249.907 32.795 247.171 31.6787 244.938 29.4461C242.705 27.2135 241.589 24.4363 241.589 21.1146C241.589 17.7929 242.705 15.0157 244.938 12.7831C247.198 10.5505 249.934 9.43418 253.147 9.43418ZM258.946 15.0702C257.367 13.4638 255.434 12.6606 253.147 12.6606C250.86 12.6606 248.927 13.4638 247.348 15.0702C245.796 16.6494 245.02 18.6642 245.02 21.1146C245.02 23.565 245.796 25.5934 247.348 27.1998C248.927 28.779 250.86 29.5686 253.147 29.5686C255.461 29.5686 257.394 28.779 258.946 27.1998C260.525 25.5934 261.315 23.565 261.315 21.1146C261.315 18.6642 260.525 16.6494 258.946 15.0702Z" fill="#121619"/>
<path d="M281.283 9.43418C283.815 9.43418 285.803 10.1965 287.246 11.7213C288.689 13.246 289.41 15.3697 289.41 18.0924V32.3458H286.02V18.7458C286.02 14.689 284.128 12.6606 280.344 12.6606C278.084 12.6606 276.328 13.3957 275.075 14.866C273.85 16.3362 273.237 18.3238 273.237 20.8287V32.3458H269.847V9.88343H273.237V14.3351C274.871 11.0678 277.553 9.43418 281.283 9.43418Z" fill="#121619"/>
<path d="M304.729 32.795C301.789 32.795 299.352 32.1416 297.419 30.8347C295.486 29.5278 294.301 27.6899 293.866 25.3212H297.337C297.773 26.8459 298.576 27.935 299.747 28.5884C300.945 29.2419 302.605 29.5686 304.729 29.5686C306.444 29.5686 307.833 29.2827 308.895 28.7109C309.984 28.1119 310.529 27.2815 310.529 26.2197C310.529 25.5662 310.256 25.0217 309.712 24.586C309.167 24.1232 308.582 23.7965 307.956 23.6059C307.329 23.4153 306.254 23.1294 304.729 22.7482C304.375 22.6665 304.103 22.5985 303.912 22.544C300.536 21.7 298.208 20.8695 296.929 20.0527C295.649 19.2359 295.009 17.9563 295.009 16.2137C295.009 14.09 295.84 12.4292 297.5 11.2312C299.188 10.0332 301.394 9.43418 304.117 9.43418C306.73 9.43418 308.854 10.0059 310.488 11.1495C312.149 12.2658 313.21 13.845 313.673 15.887H310.243C309.426 13.7361 307.411 12.6606 304.198 12.6606C302.428 12.6606 301.026 12.9737 299.992 13.5999C298.957 14.1989 298.44 14.9885 298.44 15.9687C298.44 16.8127 298.862 17.4389 299.706 17.8473C300.55 18.2285 302.238 18.7458 304.77 19.3993C305.968 19.6988 306.867 19.9302 307.465 20.0936C308.092 20.2569 308.827 20.4884 309.671 20.7879C310.542 21.0874 311.182 21.3732 311.59 21.6455C311.999 21.9178 312.421 22.2717 312.856 22.7074C313.292 23.1158 313.592 23.5923 313.755 24.1368C313.918 24.6541 314 25.2531 314 25.9338C314 28.1392 313.115 29.8409 311.345 31.0389C309.603 32.2096 307.397 32.795 304.729 32.795Z" fill="#121619"/>
<path d="M120.154 47.0112H123.544V69.2285C123.544 72.5775 122.591 75.2321 120.685 77.1924C118.779 79.1528 116.179 80.133 112.885 80.133C110.135 80.133 107.752 79.4251 105.738 78.0093C103.723 76.5935 102.443 74.6059 101.898 72.0465H105.411C105.874 73.6529 106.759 74.8918 108.065 75.763C109.4 76.6615 110.979 77.1108 112.803 77.1108C115.144 77.1108 116.955 76.4301 118.235 75.0687C119.514 73.7346 120.154 71.8151 120.154 69.3102V64.7769C119.256 66.3288 118.058 67.5541 116.56 68.4526C115.063 69.3238 113.375 69.7595 111.496 69.7595C108.447 69.7595 105.928 68.6704 103.941 66.4922C101.98 64.2868 101 61.5097 101 58.1607C101 54.7846 101.98 52.0074 103.941 49.8292C105.928 47.6511 108.447 46.562 111.496 46.562C113.347 46.562 115.036 47.0112 116.56 47.9097C118.085 48.8082 119.283 50.0334 120.154 51.5854V47.0112ZM112.149 66.5331C114.437 66.5331 116.342 65.7435 117.867 64.1643C119.419 62.5851 120.195 60.5839 120.195 58.1607C120.195 55.7375 119.419 53.7363 117.867 52.1572C116.342 50.578 114.437 49.7884 112.149 49.7884C109.89 49.7884 108.038 50.578 106.595 52.1572C105.152 53.7363 104.431 55.7375 104.431 58.1607C104.431 60.5839 105.152 62.5851 106.595 64.1643C108.038 65.7435 109.89 66.5331 112.149 66.5331Z" fill="#121619"/>
<path d="M140.972 46.562C141.462 46.562 141.925 46.5892 142.361 46.6437V50.1151C141.871 50.0607 141.394 50.0334 140.931 50.0334C138.508 50.0334 136.575 50.8094 135.132 52.3614C133.689 53.8861 132.967 56.0506 132.967 58.855V69.4736H129.578V47.0112H132.967V52.0346C134.438 48.3862 137.106 46.562 140.972 46.562Z" fill="#121619"/>
<path d="M164.465 47.0112H167.854V69.4736H164.465V64.9403C163.566 66.4922 162.368 67.7174 160.871 68.6159C159.4 69.4872 157.712 69.9228 155.806 69.9228C152.757 69.9228 150.239 68.8337 148.251 66.6556C146.291 64.4502 145.31 61.6458 145.31 58.2424C145.31 54.839 146.291 52.0482 148.251 49.8701C150.239 47.6647 152.757 46.562 155.806 46.562C157.712 46.562 159.414 47.0112 160.912 47.9097C162.409 48.8082 163.593 50.0471 164.465 51.6262V47.0112ZM156.46 66.6964C158.774 66.6964 160.694 65.9068 162.218 64.3277C163.743 62.7213 164.506 60.6928 164.506 58.2424C164.506 55.792 163.743 53.7772 162.218 52.198C160.694 50.5916 158.774 49.7884 156.46 49.7884C154.173 49.7884 152.308 50.5916 150.865 52.198C149.449 53.7772 148.741 55.792 148.741 58.2424C148.741 60.7201 149.463 62.7485 150.906 64.3277C152.349 65.9068 154.2 66.6964 156.46 66.6964Z" fill="#121619"/>
<path d="M186.14 46.562C189.19 46.562 191.695 47.6647 193.655 49.8701C195.642 52.0482 196.636 54.839 196.636 58.2424C196.636 61.6458 195.642 64.4502 193.655 66.6556C191.667 68.8337 189.149 69.9228 186.099 69.9228C184.193 69.9228 182.492 69.4872 180.994 68.6159C179.524 67.7174 178.353 66.4922 177.482 64.9403V79.6837H174.092V47.0112H177.482V51.6262C178.353 50.0471 179.538 48.8082 181.035 47.9097C182.533 47.0112 184.234 46.562 186.14 46.562ZM185.487 66.6964C187.747 66.6964 189.598 65.9068 191.041 64.3277C192.484 62.7485 193.206 60.7201 193.206 58.2424C193.206 55.792 192.484 53.7772 191.041 52.198C189.598 50.5916 187.747 49.7884 185.487 49.7884C183.172 49.7884 181.253 50.5916 179.728 52.198C178.204 53.7772 177.441 55.792 177.441 58.2424C177.441 60.6928 178.204 62.7213 179.728 64.3277C181.253 65.9068 183.172 66.6964 185.487 66.6964Z" fill="#121619"/>
<path d="M213.406 46.562C215.965 46.562 217.953 47.3244 219.369 48.8491C220.812 50.3738 221.533 52.4975 221.533 55.2202V69.4736H218.144V55.8737C218.144 51.8168 216.251 49.7884 212.467 49.7884C210.207 49.7884 208.451 50.5235 207.198 51.9938C205.973 53.4641 205.36 55.4516 205.36 57.9565V69.4736H201.971V38.0263H205.36V51.3812C207.021 48.1684 209.703 46.562 213.406 46.562Z" fill="#121619"/>
<defs>
<clipPath id="clip0_1232_28617">
<rect width="61.97" height="61.97" fill="white" transform="translate(0 10)"/>
</clipPath>
</defs>
</svg>
