<svg width="115" height="26" viewBox="0 0 115 26" fill="none" xmlns="http://www.w3.org/2000/svg">
<path d="M4.82358 1.60768C5.23973 2.30988 5.70317 3.16915 6.2139 4.1855C6.72464 5.20185 7.24483 6.27363 7.77447 7.40085C8.30412 8.50959 8.82431 9.64606 9.33504 10.8102C9.86469 11.9559 10.347 13.0185 10.7821 13.9979C11.2172 13.0185 11.6901 11.9559 12.2008 10.8102C12.7115 9.64606 13.2317 8.50959 13.7614 7.40085C14.291 6.27363 14.8112 5.20185 15.322 4.1855C15.8327 3.16915 16.2961 2.30988 16.7123 1.60768H19.9469C20.1172 3.01208 20.2779 4.50888 20.4293 6.09808C20.5806 7.6688 20.713 9.28571 20.8265 10.9488C20.9589 12.5935 21.0724 14.2566 21.167 15.9382C21.2805 17.6013 21.3751 19.2274 21.4507 20.8166H17.9324C17.8567 18.5807 17.7621 16.28 17.6486 13.9147C17.554 11.5494 17.4027 9.258 17.1946 7.04051C16.9866 7.46553 16.7407 7.9737 16.4569 8.56503C16.1732 9.15636 15.8705 9.80313 15.5489 10.5053C15.2274 11.1891 14.8963 11.9005 14.5559 12.6397C14.2343 13.3788 13.9127 14.0995 13.5911 14.8017C13.2885 15.4854 13.0047 16.1322 12.7399 16.742C12.4751 17.3333 12.2481 17.8415 12.0589 18.2665H9.39179C9.20263 17.8415 8.97564 17.3241 8.71082 16.7143C8.44599 16.1045 8.15279 15.4577 7.83122 14.774C7.52857 14.0718 7.20699 13.3511 6.86651 12.6119C6.54493 11.8728 6.22336 11.1613 5.90179 10.4776C5.58022 9.79389 5.27756 9.15636 4.99382 8.56503C4.71008 7.95522 4.46417 7.44705 4.2561 7.04051C4.04802 9.258 3.88724 11.5494 3.77374 13.9147C3.67916 16.28 3.59404 18.5807 3.51838 20.8166H0C0.075664 19.2274 0.160786 17.5828 0.255366 15.8827C0.368862 14.1827 0.482358 12.5011 0.595854 10.838C0.728266 9.15636 0.870136 7.53021 1.02146 5.95949C1.17279 4.38877 1.33358 2.93817 1.50382 1.60768H4.82358Z" fill="white"/>
<path d="M31.8013 18.4606C32.8606 18.4606 33.6645 18.4051 34.213 18.2942V14.58C34.0239 14.5245 33.7496 14.4691 33.3902 14.4136C33.0308 14.3582 32.6336 14.3305 32.1985 14.3305C31.8202 14.3305 31.4324 14.3582 31.0352 14.4136C30.6568 14.4691 30.3069 14.5707 29.9853 14.7185C29.6827 14.8664 29.4368 15.0789 29.2476 15.3561C29.0584 15.6148 28.9639 15.9474 28.9639 16.3539C28.9639 17.1485 29.2192 17.7029 29.73 18.0171C30.2407 18.3127 30.9311 18.4606 31.8013 18.4606ZM31.5175 5.95949C32.6525 5.95949 33.6077 6.09808 34.3833 6.37527C35.1588 6.65245 35.7736 7.04051 36.2276 7.53945C36.7005 8.03838 37.0315 8.64819 37.2207 9.36887C37.4288 10.0711 37.5328 10.8472 37.5328 11.6972V20.484C37.0032 20.5949 36.1992 20.7242 35.121 20.8721C34.0617 21.0384 32.8606 21.1215 31.5175 21.1215C30.6285 21.1215 29.8151 21.0384 29.0774 20.8721C28.3396 20.7058 27.7059 20.4378 27.1763 20.0682C26.6656 19.6986 26.2589 19.2182 25.9562 18.6269C25.6725 18.0355 25.5306 17.3056 25.5306 16.4371C25.5306 15.6055 25.6914 14.9033 26.013 14.3305C26.3535 13.7576 26.8074 13.2957 27.3749 12.9446C27.9424 12.575 28.595 12.3163 29.3327 12.1684C30.0894 12.0021 30.8744 11.919 31.6878 11.919C32.0661 11.919 32.4633 11.9467 32.8795 12.0021C33.2956 12.0391 33.7402 12.113 34.213 12.2239V11.6695C34.213 11.2815 34.1658 10.9119 34.0712 10.5608C33.9766 10.2097 33.8064 9.90476 33.5604 9.64606C33.3335 9.36887 33.0213 9.15636 32.6241 9.00853C32.2458 8.8607 31.7634 8.78678 31.177 8.78678C30.3826 8.78678 29.6543 8.84222 28.9922 8.95309C28.3302 9.06397 27.7911 9.19332 27.3749 9.34115L26.9493 6.62473C27.3844 6.4769 28.0181 6.32907 28.8504 6.18124C29.6827 6.0334 30.5717 5.95949 31.5175 5.95949Z" fill="white"/>
<path d="M42.702 2.49467L46.1352 1.9403V6.31983H51.4128V9.1194H46.1352V15.0235C46.1352 16.1876 46.3244 17.0192 46.7027 17.5181C47.081 18.0171 47.7242 18.2665 48.6321 18.2665C49.2564 18.2665 49.8049 18.2018 50.2778 18.0725C50.7696 17.9431 51.1574 17.823 51.4412 17.7122L52.0086 20.3731C51.6114 20.5394 51.0912 20.7058 50.4481 20.8721C49.8049 21.0569 49.0483 21.1493 48.1782 21.1493C47.1189 21.1493 46.2298 21.0107 45.511 20.7335C44.8111 20.4563 44.2531 20.059 43.8369 19.5416C43.4208 19.0057 43.1276 18.3682 42.9573 17.629C42.7871 16.8714 42.702 16.0121 42.702 15.0512V2.49467Z" fill="white"/>
<path d="M59.3282 20.8166H55.895V6.31983H59.3282V20.8166ZM59.6971 2.07889C59.6971 2.70718 59.489 3.20611 59.0729 3.57569C58.6567 3.94527 58.1649 4.13006 57.5974 4.13006C57.011 4.13006 56.5098 3.94527 56.0936 3.57569C55.6775 3.20611 55.4694 2.70718 55.4694 2.07889C55.4694 1.43213 55.6775 0.923952 56.0936 0.554372C56.5098 0.184791 57.011 0 57.5974 0C58.1649 0 58.6567 0.184791 59.0729 0.554372C59.489 0.923952 59.6971 1.43213 59.6971 2.07889Z" fill="white"/>
<path d="M68.6453 20.8166C67.6995 18.9133 66.7254 16.7328 65.7228 14.2751C64.7392 11.7989 63.8407 9.14712 63.0273 6.31983H66.6875C66.8956 7.13291 67.132 8.01066 67.3969 8.95309C67.6806 9.87704 67.9738 10.8102 68.2765 11.7527C68.598 12.6766 68.9196 13.5821 69.2412 14.4691C69.5817 15.3376 69.8938 16.123 70.1775 16.8252C70.4613 16.123 70.7639 15.3376 71.0855 14.4691C71.4071 13.5821 71.7192 12.6766 72.0218 11.7527C72.3434 10.8102 72.6461 9.87704 72.9298 8.95309C73.2135 8.01066 73.4595 7.13291 73.6675 6.31983H77.2143C76.4009 9.14712 75.4929 11.7989 74.4904 14.2751C73.5067 16.7328 72.542 18.9133 71.5962 20.8166H68.6453Z" fill="white"/>
<path d="M84.3749 20.8166H80.9417V6.31983H84.3749V20.8166ZM84.7438 2.07889C84.7438 2.70718 84.5357 3.20611 84.1196 3.57569C83.7034 3.94527 83.2116 4.13006 82.6441 4.13006C82.0577 4.13006 81.5565 3.94527 81.1403 3.57569C80.7242 3.20611 80.5161 2.70718 80.5161 2.07889C80.5161 1.43213 80.7242 0.923952 81.1403 0.554372C81.5565 0.184791 82.0577 0 82.6441 0C83.2116 0 83.7034 0.184791 84.1196 0.554372C84.5357 0.923952 84.7438 1.43213 84.7438 2.07889Z" fill="white"/>
<path d="M89.7197 2.49467L93.1529 1.9403V6.31983H98.4305V9.1194H93.1529V15.0235C93.1529 16.1876 93.3421 17.0192 93.7204 17.5181C94.0987 18.0171 94.7419 18.2665 95.6498 18.2665C96.2741 18.2665 96.8226 18.2018 97.2955 18.0725C97.7873 17.9431 98.1751 17.823 98.4589 17.7122L99.0263 20.3731C98.6291 20.5394 98.1089 20.7058 97.4658 20.8721C96.8226 21.0569 96.066 21.1493 95.1958 21.1493C94.1366 21.1493 93.2475 21.0107 92.5287 20.7335C91.8288 20.4563 91.2708 20.059 90.8546 19.5416C90.4385 19.0057 90.1453 18.3682 89.975 17.629C89.8048 16.8714 89.7197 16.0121 89.7197 15.0512V2.49467Z" fill="white"/>
<path d="M115 6.31983C113.468 11.8266 111.69 16.8159 109.666 21.2878C109.287 22.1194 108.9 22.8308 108.502 23.4222C108.105 24.0135 107.661 24.5032 107.169 24.8913C106.677 25.2793 106.128 25.5565 105.523 25.7228C104.918 25.9076 104.218 26 103.423 26C102.894 26 102.364 25.9446 101.834 25.8337C101.324 25.7228 100.936 25.6027 100.671 25.4733L101.295 22.7846C101.976 23.0434 102.648 23.1727 103.31 23.1727C104.199 23.1727 104.889 22.9602 105.381 22.5352C105.892 22.1286 106.336 21.4911 106.715 20.6226C105.637 18.5899 104.596 16.3724 103.594 13.9701C102.61 11.5679 101.73 9.01777 100.955 6.31983H104.615C104.804 7.09595 105.031 7.93674 105.296 8.84222C105.58 9.74769 105.882 10.6716 106.204 11.6141C106.526 12.538 106.866 13.462 107.226 14.3859C107.585 15.3099 107.944 16.1692 108.304 16.9638C108.909 15.3191 109.477 13.5729 110.006 11.7249C110.536 9.85856 111.018 8.05686 111.453 6.31983H115Z" fill="white"/>
</svg>
