<svg width="56" height="56" viewBox="0 0 56 56" fill="none" xmlns="http://www.w3.org/2000/svg">
<circle cx="28" cy="28" r="26.5" stroke="#366D6D" stroke-width="3"/>
<g clip-path="url(#clip0_559_9111)">
<path d="M21.503 29.608C19.1975 29.608 17.3364 31.4691 17.3364 33.7747C17.3364 35.5941 15.7253 36.5525 14.5586 36.5525C15.8364 38.2469 18.0169 39.3303 20.1141 39.3303C23.1836 39.3303 25.6697 36.8441 25.6697 33.7747C25.6697 31.4691 23.8086 29.608 21.503 29.608ZM40.5447 16.5941L38.6836 14.733C38.1419 14.1914 37.2669 14.1914 36.7253 14.733L24.2808 27.1775L28.1003 30.9969L40.5447 18.5525C41.0864 18.0108 41.0864 17.1358 40.5447 16.5941Z" fill="#08ECEC"/>
</g>
<defs>
<clipPath id="clip0_559_9111">
<rect width="33.3333" height="33.3333" fill="white" transform="translate(11.3335 11.3331)"/>
</clipPath>
</defs>
</svg>
