<svg width="56" height="56" viewBox="0 0 56 56" fill="none" xmlns="http://www.w3.org/2000/svg">
<circle cx="28" cy="28" r="26.5" stroke="#0D8188" stroke-width="3"/>
<g clip-path="url(#clip0_559_9078)">
<path d="M18.7202 37.5716V42.5432H23.6918L38.3547 27.8803L33.3831 22.9088L18.7202 37.5716ZM42.1994 24.0356C42.7164 23.5186 42.7164 22.6834 42.1994 22.1663L39.0971 19.0641C38.5801 18.547 37.7448 18.547 37.2278 19.0641L34.8017 21.4902L39.7732 26.4618L42.1994 24.0356Z" fill="#08ECEC"/>
<path d="M16.0686 31.9338L16.864 29.2823L20.0459 28.6194L16.864 27.9566L16.0686 25.3051L15.2731 27.9566L12.0913 28.6194L15.2731 29.2823L16.0686 31.9338Z" fill="#08ECEC"/>
<path d="M23.3604 22.6535L24.8143 19.9091L28.0005 18.6762L24.8143 17.4432L23.3604 14.6989L21.9374 17.4432L18.7202 18.6762L21.9374 19.9091L23.3604 22.6535Z" fill="#08ECEC"/>
</g>
<defs>
<clipPath id="clip0_559_9078">
<rect width="31.8182" height="31.8182" fill="white" transform="translate(12.0913 12.0909)"/>
</clipPath>
</defs>
</svg>
