<svg width="26" height="21" viewBox="0 0 26 21" fill="none" xmlns="http://www.w3.org/2000/svg">
<path d="M1.27197 0.622681C0.995831 0.622681 0.771973 0.846538 0.771973 1.12268V4.02363C0.771973 4.29978 0.99583 4.52363 1.27197 4.52363H6.77356C7.0497 4.52363 7.27356 4.74749 7.27356 5.02363V19.6274C7.27356 19.9036 7.49742 20.1274 7.77356 20.1274H10.6745C10.9507 20.1274 11.1745 19.9036 11.1745 19.6274V5.02363C11.1745 4.74749 11.3984 4.52363 11.6745 4.52363H17.1761C17.4522 4.52363 17.6761 4.29977 17.6761 4.02363V1.12268C17.6761 0.846538 17.4522 0.622681 17.1761 0.622681H1.27197ZM25.478 7.62427C25.478 7.34812 25.2541 7.12427 24.978 7.12427H14.2751C13.999 7.12427 13.7751 7.34812 13.7751 7.62427V10.5252C13.7751 10.8014 13.999 11.0252 14.2751 11.0252H17.1761C17.4522 11.0252 17.6761 11.2491 17.6761 11.5252V19.6274C17.6761 19.9036 17.9 20.1274 18.1761 20.1274H21.077C21.3532 20.1274 21.577 19.9036 21.577 19.6274V11.5252C21.577 11.2491 21.8009 11.0252 22.077 11.0252H24.978C25.2541 11.0252 25.478 10.8014 25.478 10.5252V7.62427Z" fill="#646464"/>
</svg>
